<svg width="2521" height="1358" xmlns="http://www.w3.org/2000/svg" xmlns:xlink="http://www.w3.org/1999/xlink" xml:space="preserve" overflow="hidden"><defs><clipPath id="clip0"><rect x="978" y="622" width="2521" height="1358"/></clipPath><linearGradient x1="1990.7" y1="1876.31" x2="1991.3" y2="1821.69" gradientUnits="userSpaceOnUse" spreadMethod="reflect" id="fill1"><stop offset="0" stop-color="#FFFFFF"/><stop offset="0.5" stop-color="#F6F6F6"/><stop offset="1" stop-color="#EEEEEE"/></linearGradient><linearGradient x1="2105.19" y1="1876.31" x2="2105.81" y2="1821.69" gradientUnits="userSpaceOnUse" spreadMethod="reflect" id="fill2"><stop offset="0" stop-color="#FFFFFF"/><stop offset="0.5" stop-color="#F6F6F6"/><stop offset="1" stop-color="#EEEEEE"/></linearGradient></defs><g clip-path="url(#clip0)" transform="translate(-978 -622)"><path d="M2344 1980C2981.89 1980 3499 1961.64 3499 1939 3499 1916.36 2981.89 1898 2344 1898 1706.11 1898 1189 1916.36 1189 1939 1189 1961.64 1706.11 1980 2344 1980Z" fill="#161F32" fill-rule="evenodd"/><path d="M1310.74 1663C1310.74 1663 1374.57 1545.03 1541.71 1429.96 1659.71 1348.7 1717 1139 1717 1139 1717 1139 1481.69 1166.11 1389.26 1317.06 1296.84 1468.01 1310.74 1663 1310.74 1663Z" fill="#6E98F6" fill-rule="evenodd"/><path d="M1309.85 1667C1311.45 1666.88 1312.8 1665.72 1313.05 1664.18 1337.43 1536.33 1403.63 1440.16 1454.95 1381.93 1510.56 1318.93 1560.9 1285.78 1561.41 1285.48 1563.03 1284.38 1563.5 1282.2 1562.4 1280.58 1561.33 1278.96 1559.15 1278.51 1557.53 1279.58 1557.52 1279.59 1557.52 1279.59 1557.51 1279.59 1557 1279.9 1505.81 1313.55 1449.61 1377.31 1397.71 1436.11 1330.7 1533.42 1306.07 1662.8 1305.69 1664.66 1306.89 1666.48 1308.75 1666.87 1308.79 1666.87 1308.83 1666.88 1308.86 1666.89 1309.31 1666.95 1309.59 1667.01 1309.85 1667Z" fill="#31446C" fill-rule="evenodd"/><path d="M1341 1659C1341 1659 1358.59 1616.27 1451.84 1620 1545.07 1623.63 1600.11 1671.55 1758 1567.03 1758 1567.03 1627.32 1472.75 1495.23 1502.97 1363.04 1533.11 1356.4 1585.35 1341 1659Z" fill="#666AF6" fill-rule="evenodd"/><path d="M1340.74 1661.99C1341.89 1661.91 1343 1661.21 1343.63 1660.09 1344.03 1659.43 1380.64 1591.44 1446.21 1574.6 1560.79 1545.16 1642.36 1576.66 1643.19 1577.05 1645.01 1577.74 1647.05 1576.84 1647.77 1575.03 1648.44 1573.22 1647.6 1571.21 1645.84 1570.43 1645.01 1570.13 1561.32 1537.7 1444.47 1567.76 1375.84 1585.35 1339 1653.9 1337.43 1656.78 1336.48 1658.54 1337.16 1660.64 1338.92 1661.59 1339.39 1661.91 1340.12 1662.04 1340.74 1661.99Z" fill="#31446C" fill-rule="evenodd"/><path d="M1299.97 1652C1299.97 1652 1304.82 1606.28 1221.31 1565.08 1137.79 1523.88 1066.8 1539.56 978 1372.95 978 1372.95 1137.36 1352.77 1238.93 1442.15 1340.48 1531.36 1321.41 1580.23 1299.97 1652Z" fill="#666AF6" fill-rule="evenodd"/><path d="M1300.76 1654.89C1302.54 1654.76 1304.04 1653.23 1304 1651.46 1304.03 1648.17 1304.2 1570.66 1252.3 1522.57 1163.8 1440.6 1074.72 1429.14 1073.91 1429.02 1072 1428.81 1070.27 1430.16 1070.02 1432.06 1069.81 1433.96 1071.16 1435.69 1073.07 1435.93 1073.97 1436.05 1160.8 1447.31 1247.58 1527.71 1297.28 1573.73 1297.06 1650.62 1297.03 1651.42 1296.99 1653.35 1298.53 1654.96 1300.47 1655 1300.48 1655 1300.49 1655 1300.5 1655 1300.5 1654.91 1300.59 1654.9 1300.76 1654.89Z" fill="#31446C" fill-rule="evenodd"/><path d="M1339.98 1966C1461.02 1966 1538.06 1946.7 1525.7 1861.25 1517.86 1806.99 1475.66 1753.91 1445.87 1722.29 1442.03 1718.24 1438.13 1714.25 1434.16 1710.33 1423.09 1699.42 1415.66 1693.08 1415.66 1693.08L1415.31 1691.09 1413.2 1679.13 1410.74 1665.34 1405.18 1633.78 1403.25 1622.76 1339.98 1620 1273.95 1622.76 1272.43 1633.78 1270.09 1651.15 1266.22 1679.18 1264.59 1691.15 1264.35 1693.14C1264.35 1693.14 1256.92 1699.42 1245.85 1710.39 1241.9 1714.32 1237.99 1718.31 1234.15 1722.35 1204.35 1753.91 1162.15 1807.05 1154.31 1861.3 1141.9 1946.7 1218.93 1966 1339.98 1966Z" fill="#3B5281" fill-rule="evenodd"/><path d="M1248.85 1643 1432.15 1643C1441.96 1643 1450 1634.94 1450 1625.1L1450 1613.9C1450 1604.06 1441.96 1596 1432.15 1596L1248.85 1596C1239.04 1596 1231 1604.06 1231 1613.9L1231 1625.1C1231 1634.94 1239.04 1643 1248.85 1643Z" fill="#3B5281" fill-rule="evenodd"/><path d="M1220 1203.5C1220 1222.56 1203.88 1238 1183.96 1238 1164.04 1238 1148 1222.49 1148 1203.5 1148 1184.43 1164.12 1169 1184.04 1169 1203.96 1169 1220 1184.43 1220 1203.5Z" stroke="#E1E4E5" stroke-width="17.9609" stroke-miterlimit="8" fill="none" fill-rule="evenodd"/><path d="M1653.55 742.315C1643.55 739.636 1637.62 729.357 1640.3 719.358 1642.98 709.358 1653.26 703.424 1663.26 706.103 1673.26 708.783 1679.19 719.061 1676.51 729.061 1673.83 739.06 1663.55 744.995 1653.55 742.315Z" fill="#E1E4E5" fill-rule="evenodd"/><path d="M1721.63 979.571C1711.63 976.892 1705.7 966.613 1708.38 956.614 1711.06 946.614 1721.34 940.68 1731.34 943.359 1741.34 946.039 1747.27 956.317 1744.59 966.317 1741.91 976.316 1731.63 982.251 1721.63 979.571Z" fill="#E1E4E5" fill-rule="evenodd"/><path d="M2094.26 804.005C2084.26 801.326 2078.33 791.047 2081.01 781.048 2083.69 771.048 2093.97 765.114 2103.97 767.793 2113.97 770.473 2119.9 780.751 2117.22 790.751 2114.54 800.75 2104.26 806.685 2094.26 804.005Z" fill="#E1E4E5" fill-rule="evenodd"/><path d="M2765.24 1209.13C2758.67 1207.37 2754.77 1200.62 2756.53 1194.05 2758.29 1187.48 2765.04 1183.58 2771.61 1185.34 2778.18 1187.1 2782.08 1193.85 2780.32 1200.42 2778.56 1206.99 2771.81 1210.89 2765.24 1209.13Z" fill="#E1E4E5" fill-rule="evenodd"/><path d="M2774.97 1515.75C2764.97 1513.07 2759.04 1502.8 2761.72 1492.8 2764.4 1482.8 2774.68 1476.86 2784.68 1479.54 2794.67 1482.22 2800.61 1492.5 2797.93 1502.5 2795.25 1512.5 2784.97 1518.43 2774.97 1515.75Z" fill="#E1E4E5" fill-rule="evenodd"/><path d="M2922.79 1405.75C2912.79 1403.07 2906.85 1392.8 2909.53 1382.8 2912.21 1372.8 2922.49 1366.86 2932.49 1369.54 2942.49 1372.22 2948.42 1382.5 2945.74 1392.5 2943.06 1402.5 2932.79 1408.43 2922.79 1405.75Z" fill="#E1E4E5" fill-rule="evenodd"/><path d="M2647.31 985.499 2647.31 1052.22 2587 1124 2840.32 1124C2916.89 1124 2979 1061.97 2979 985.499 2979 909.028 2916.89 847 2840.32 847L2785.99 847C2709.37 847 2647.31 909.028 2647.31 985.499Z" fill="#6E98F6" fill-rule="evenodd"/><path d="M2753.34 985.002C2753.33 998.804 2742.29 1009.99 2728.67 1010 2715.05 1009.99 2704.01 998.804 2704 985.002 2704.01 971.199 2715.05 960.01 2728.67 960.003 2742.29 960.01 2753.33 971.199 2753.34 985.002ZM2837.17 984.998C2837.17 998.801 2826.12 1009.99 2812.5 1010 2798.88 1009.99 2787.84 998.801 2787.83 984.998 2787.84 971.196 2798.88 960.007 2812.5 960 2826.12 960.007 2837.16 971.196 2837.17 984.998ZM2921 984.998C2920.99 998.801 2909.95 1009.99 2896.33 1010 2882.71 1009.99 2871.67 998.801 2871.66 984.998 2871.67 971.196 2882.71 960.007 2896.33 960 2909.95 960.007 2920.99 971.196 2921 984.998Z" fill="#FFFFFF" fill-rule="evenodd"/><path d="M2855.47 1722.52 2807.5 1741.5 2810.54 1689.47 2858.5 1670.5 2855.47 1722.52Z" stroke="#E1E4E5" stroke-width="14.6678" stroke-linecap="round" stroke-linejoin="round" stroke-miterlimit="10" fill="none" fill-rule="evenodd"/><path d="M1791 778.226 1791 646.665C1791 633.037 1802.02 622 1815.62 622L1963.37 622C1976.98 622 1988 633.037 1988 646.665L1988 778.226C1988 787.179 1983.15 795.43 1975.33 799.786L1901.46 840.893C1894.02 845.036 1884.97 845.036 1877.53 840.893L1803.66 799.786C1795.84 795.424 1791 787.175 1791 778.226Z" fill="#6E98F6" fill-rule="evenodd"/><path d="M1849.5 731.551 1930.5 731.551M1849.5 693.5 1930.5 693.5M1849.5 768.5 1930.5 768.5" stroke="#FFFFFF" stroke-width="12.6569" stroke-linecap="round" stroke-linejoin="round" stroke-miterlimit="10" fill="none" fill-rule="evenodd"/><path d="M2970.86 1168.36C2973.14 1166.08 2974.98 1164.23 2974.98 1164.23L2983.24 1172.49C2983.24 1172.49 2981.39 1174.33 2979.11 1176.61L2916.52 1239.2C2914.24 1241.48 2912.39 1243.33 2912.39 1243.33L2904.14 1235.08C2904.14 1235.08 2905.99 1233.23 2908.27 1230.95Z" fill="#E1E4E5" fill-rule="evenodd"/><path d="M2964.73 1213.17C2967.01 1210.89 2968.86 1209.04 2968.86 1209.04L2977.11 1217.3C2977.11 1217.3 2975.27 1219.15 2972.99 1221.43L2954.94 1239.48C2952.66 1241.76 2950.81 1243.6 2950.81 1243.6L2942.55 1235.35C2942.55 1235.35 2944.4 1233.5 2946.68 1231.22Z" fill="#E1E4E5" fill-rule="evenodd"/><path d="M3268.7 979.51C3268.7 979.51 3215.94 965.328 3197.76 1086.48 3179.57 1207.63 3179.44 1273.99 3179.44 1273.99 3179.44 1273.99 3172.76 1300.33 3153.15 1291.11 3133.54 1281.89 3099.78 1248.49 3076.89 1264.17 3053.16 1280.44 3054.3 1312.64 3073.64 1354.07 3092.98 1395.5 3132.02 1487.75 3135.52 1496.14 3138.97 1504.32 3138.26 1518.37 3123.9 1514.22 3109.53 1510.07 3017.39 1457.57 2995.16 1502.83 2972.88 1548.12 3045.7 1654.64 3053.43 1666.42 3061.16 1678.2 3060.5 1684.59 3055.44 1689.85 3050.38 1695.11 3021.05 1674.53 2994.25 1660.65 2967.45 1646.77 2933.91 1635.44 2923.26 1662.64 2912.6 1689.84 2936.32 1780.09 3068.01 1895.52L3132.52 1945 3208.4 1914.89C3366.85 1840.54 3414.62 1760.39 3411.89 1731.3 3409.16 1702.22 3373.82 1703.8 3344.21 1709.69 3314.6 1715.59 3280.74 1727.21 3277.33 1720.74 3273.91 1714.29 3275.02 1707.98 3285.71 1698.79 3296.39 1689.6 3395.81 1607.5 3386.93 1557.78 3378.07 1508.11 3275.01 1532.98 3260.06 1532.93 3245.13 1532.94 3248.36 1519.27 3253.93 1512.35 3259.61 1505.29 3322.68 1427.46 3352.69 1393.01 3382.73 1358.61 3392.72 1327.96 3374.42 1305.74 3356.79 1284.28 3315.09 1307.07 3293.7 1310.49 3272.32 1313.91 3273.19 1286.71 3273.19 1286.71 3273.19 1286.71 3291.47 1222.9 3307.47 1101.44 3323.47 979.985 3267.52 979.249 3267.52 979.249" fill="#3B5281" fill-rule="evenodd"/><path d="M3131 1927.74C3143.07 1838.61 3160.8 1715.62 3180.89 1579.83 3200.94 1444.11 3218.96 1321.21 3231.57 1232.14 3237.82 1187.7 3242.86 1151.7 3246.36 1126.69 3248.11 1114.32 3249.47 1104.69 3250.42 1098.01 3250.88 1094.83 3251.27 1092.35 3251.52 1090.55 3251.82 1088.89 3252 1088 3252 1088 3252 1088 3251.96 1088.85 3251.8 1090.58 3251.59 1092.38 3251.31 1094.87 3250.96 1098.07 3250.12 1104.77 3248.92 1114.42 3247.4 1126.83 3244.3 1151.79 3239.55 1187.87 3233.48 1232.42 3221.42 1321.55 3203.67 1444.49 3183.63 1580.26 3163.59 1716.03 3145.52 1838.95 3132.96 1928" fill="#FFFFFF" fill-rule="evenodd"/><path d="M3122.28 1313C3122.46 1312.9 3123.74 1314.51 3126.03 1317.58 3128.31 1320.59 3131.46 1325.07 3135.26 1330.62 3142.88 1341.78 3153.02 1357.43 3163.87 1374.98 3174.45 1392.24 3184.05 1407.87 3191.44 1419.94 3194.76 1425.26 3197.55 1429.77 3199.87 1433.51 3201.88 1436.71 3202.9 1438.54 3202.71 1438.64 3202.53 1438.74 3201.21 1437.15 3198.93 1434.13 3196.69 1431.1 3193.55 1426.63 3189.78 1421.01 3182.25 1409.77 3172.33 1393.97 3161.53 1376.45L3133.66 1331.73C3130.35 1326.42 3127.51 1321.92 3125.19 1318.17 3123.17 1314.93 3122.15 1313.09 3122.28 1313ZM3210.22 1437.63C3209.79 1437.01 3241.16 1414.66 3280.31 1387.81 3319.45 1360.91 3351.57 1339.63 3352 1340.25 3352.43 1340.87 3321.05 1363.16 3281.91 1390.06 3242.73 1416.98 3210.65 1438.25 3210.22 1437.63ZM3170.03 1644.51C3169.97 1644.31 3171.98 1643.56 3175.59 1642.28 3179.79 1640.89 3184.96 1639.19 3191.04 1637.14 3204.08 1632.81 3222.12 1626.71 3241.76 1619.29 3261.4 1611.92 3278.97 1604.64 3291.68 1599.29 3297.6 1596.81 3302.6 1594.68 3306.71 1592.94 3310.26 1591.47 3312.28 1590.77 3312.37 1590.9 3312.48 1591.08 3310.59 1592.12 3307.19 1593.92 3302.33 1596.41 3297.43 1598.79 3292.48 1601.07 3276.17 1608.62 3259.59 1615.56 3242.76 1621.86 3225.93 1628.18 3208.88 1633.89 3191.64 1638.98 3185 1640.91 3179.61 1642.36 3175.91 1643.3 3172.17 1644.25 3170.08 1644.7 3170.03 1644.51ZM3065.7 1549.26C3065.82 1549.12 3067.39 1550.28 3070.2 1552.52 3072.97 1554.78 3076.9 1558.09 3081.75 1562.22 3094.33 1573.01 3106.8 1583.92 3119.19 1594.95 3131.59 1605.96 3143.9 1617.07 3156.11 1628.3 3159.82 1631.7 3163.48 1635.16 3167.09 1638.66 3169.65 1641.13 3170.99 1642.61 3170.87 1642.75 3170.75 1642.89 3169.18 1641.74 3166.36 1639.49 3163.6 1637.23 3159.67 1633.92 3154.83 1629.8 3142.25 1619 3129.77 1608.09 3117.39 1597.06 3102.88 1584.17 3089.83 1572.36 3080.51 1563.7 3076.8 1560.3 3073.14 1556.85 3069.53 1553.34 3066.92 1550.88 3065.53 1549.41 3065.7 1549.26ZM3007.01 1727.37C3007.13 1727.24 3009.16 1728.75 3012.72 1731.63 3016.65 1734.89 3021.65 1739.02 3027.56 1744.02 3040.02 1754.56 3057.1 1769.24 3075.85 1785.62 3094.6 1802.01 3111.49 1816.95 3123.62 1827.85 3129.33 1833.05 3134.14 1837.45 3137.9 1840.91 3141.21 1844.02 3143.02 1845.85 3142.9 1845.99 3142.78 1846.13 3140.74 1844.62 3137.18 1841.73 3133.25 1838.47 3128.25 1834.34 3122.34 1829.35 3106.14 1815.6 3090.05 1801.73 3074.05 1787.74 3058.03 1773.77 3042.11 1759.69 3026.28 1745.51 3020.57 1740.31 3015.77 1735.92 3012 1732.46 3008.64 1729.36 3006.89 1727.52 3007.01 1727.37ZM3140.42 1842.23C3140.37 1842.04 3142.88 1841 3147.41 1839.26 3152.48 1837.37 3158.98 1834.95 3166.78 1832.07 3183.14 1825.95 3205.75 1817.47 3230.4 1807.39 3251.47 1798.8 3272.4 1789.86 3293.18 1780.58 3299.49 1777.81 3305.79 1775.01 3312.08 1772.2 3316.56 1770.26 3319.07 1769.22 3319.17 1769.41 3319.27 1769.59 3316.89 1770.91 3312.55 1773.17 3308.22 1775.44 3301.86 1778.62 3293.98 1782.36 3273.41 1792.17 3252.56 1801.37 3231.45 1809.95 3210.35 1818.55 3189 1826.54 3167.43 1833.89 3160.9 1836.12 3154.33 1838.25 3147.73 1840.27 3143.11 1841.67 3140.51 1842.37 3140.42 1842.23Z" fill="#FFFFFF" fill-rule="evenodd"/><path d="M3107.27 1086 3107.72 1086C3110.34 1122.12 3138 1122.68 3138 1122.68 3138 1122.68 3107.5 1123.26 3107.5 1165 3107.5 1123.26 3077 1122.68 3077 1122.68 3077 1122.68 3104.65 1122.12 3107.27 1086Z" fill="#E1E4E5" fill-rule="evenodd"/><path d="M2230.03 1084.58 2177.92 1274.8 2196.51 1253.44C2189.64 1257.09 2181.67 1259.9 2172.84 1261.89 2164.01 1263.88 2154.41 1265.01 2144.36 1265.54 2134.31 1266.07 2123.86 1265.99 2113.12 1265.54 2102.42 1265.09 2091.48 1264.28 2080.37 1263.35L2080.33 1263.35C2063.94 1261.96 2049.53 1274.08 2048.11 1290.44 2046.77 1306.04 2057.87 1319.85 2073.09 1322.33 2084.56 1324.16 2096.2 1325.86 2108.15 1327.25 2120.12 1328.62 2132.36 1329.64 2145.05 1329.92 2157.75 1330.21 2170.89 1329.72 2184.47 1327.77 2198.02 1325.82 2212.09 1322.29 2225.84 1316.36 2234.3 1312.72 2240.81 1305.66 2243.74 1296.94L2244.39 1294.95 2306.92 1107.85C2313.96 1086.81 2302.57 1064.11 2281.49 1057.08 2260.42 1050.05 2237.68 1061.43 2230.64 1082.47 2230.44 1083.16 2230.2 1083.93 2230.03 1084.58Z" fill="#F8AE9D" fill-rule="evenodd"/><path d="M2499.94 1315.89C2499.94 1315.89 2501.96 1344.33 2481.77 1351.84L2271.7 1360C2271.7 1360 2257.58 1346.18 2260.36 1313.06 2260.36 1312.98 2349.63 1221.11 2499.94 1315.89Z" fill="#666AF6" fill-rule="evenodd"/><path d="M2345.21 1345.55C2345.95 1351.08 2348.46 1355.32 2350.85 1354.98 2353.19 1354.69 2354.54 1349.95 2353.8 1344.46 2353.06 1338.92 2350.54 1334.68 2348.16 1335.02 2345.77 1335.31 2344.47 1340.05 2345.21 1345.55Z" fill="#B55E63" fill-rule="evenodd"/><path d="M2222.64 1090.53C2230.13 1063.1 2258.45 1046.93 2285.89 1054.43L2285.89 1054.43C2313.33 1061.92 2329.5 1090.24 2322 1117.68L2288.36 1240.83C2280.86 1268.27 2252.54 1284.43 2225.1 1276.94L2225.1 1276.94C2197.67 1269.44 2181.5 1241.12 2189 1213.68Z" fill="#6E98F6" fill-rule="evenodd"/><path d="M2256.73 1279.25 2256.73 1279.54C2256.81 1280.32 2256.85 1281.15 2256.89 1282.01 2257.1 1285.31 2257.26 1289.27 2257.38 1293.77 2257.51 1297.4 2257.55 1301.36 2257.59 1305.61 2257.59 1308.79 2257.63 1312.09 2257.63 1315.51 2317.15 1289.73 2438.88 1308.05 2487.88 1317 2487.38 1314.52 2486.93 1312.09 2486.48 1309.7 2486.15 1307.92 2485.86 1306.19 2485.53 1304.46 2482.29 1285.6 2480.56 1268.65 2479.99 1253.51L2479.86 1249.46C2479.37 1226.98 2481.79 1195.01 2486.73 1162.08 2487.05 1159.81 2487.43 1157.54 2487.75 1155.31L2488.49 1150.86C2490.28 1139.93 2492.38 1129.04 2494.78 1118.23 2495.6 1114.6 2496.3 1110.92 2496.88 1107.29 2497.53 1103.25 2498.03 1099.21 2498.4 1095.21 2499.3 1085.06 2499.22 1075.15 2497.91 1065.95 2495.56 1049.57 2489.19 1035.47 2477.4 1026.39 2470.73 1021.27 2462.31 1017.73 2451.87 1016.32 2448.45 1015.87 2445.08 1015.41 2441.84 1015.04 2431.6 1013.81 2422.19 1012.94 2414.54 1012.32 2412.03 1012.11 2409.69 1011.95 2407.59 1011.78 2402.25 1011.41 2398.3 1011.16 2396.37 1011.08 2395.9 1011.06 2395.44 1011.03 2394.97 1011L2303.59 1036.37 2294.87 1038.77C2291.17 1039.92 2287.68 1041.04 2284.43 1042.11 2276.37 1044.79 2269.51 1047.35 2263.59 1049.86 2256.27 1053 2250.44 1056.05 2245.83 1059.27 2225.69 1073.26 2228.56 1089.39 2228.65 1121.16L2228.65 1123.34C2228.65 1125.74 2228.61 1128.13 2228.53 1130.52 2228.44 1133.53 2228.28 1136.5 2228.03 1139.47 2227.62 1145.45 2231.17 1151.29 2230.42 1157.15 2240.01 1198.38 2242.4 1212.13 2245.83 1237.92 2248.8 1260.27 2248.22 1272.98 2254.46 1277.6 2255.86 1278.67 2256.73 1279.25 2256.73 1279.25Z" fill="#666AF6" fill-rule="evenodd"/><path d="M2393 1015.05C2393 1015.05 2384.92 1045.37 2354.38 1053.78 2315.56 1064.45 2309.71 1051.53 2309.71 1051.53 2310.67 1046.04 2311.03 1040.46 2310.76 1034.9 2310.67 1032.68 2310.49 1030.46 2310.24 1028.26 2309.55 1022.06 2308.25 1015.3 2306.42 1007.57 2306.01 1005.75 2305.53 1003.86 2305.04 1001.93L2305 1001.69C2331.56 991.787 2352.39 976.93 2365.14 954.95L2368.92 952.012 2371.48 950 2372.21 951.527 2372.33 956.641C2372.86 980.673 2376.96 994.886 2393 1015.05Z" fill="#F8AE9D" fill-rule="evenodd"/><path d="M2209.9 1774C2210.68 1774 2211.45 1773.88 2212.22 1773.59L2484.64 1675.31C2488.17 1673.91 2489.91 1669.91 2488.52 1666.37 2487.18 1662.97 2483.43 1661.21 2479.97 1662.35L2207.55 1760.63C2203.97 1761.93 2202.12 1765.87 2203.41 1769.45 2204.4 1772.19 2207 1774.01 2209.9 1774Z" fill="#666AF6" fill-rule="evenodd"/><path d="M2493.14 1774C2496.94 1773.99 2500.01 1770.89 2500 1767.07 2499.99 1764.17 2498.18 1761.58 2495.46 1760.59L2220.06 1660.35C2216.45 1659.15 2212.55 1661.11 2211.35 1664.74 2210.2 1668.22 2211.96 1672 2215.35 1673.36L2490.75 1773.59C2491.61 1773.88 2492.37 1774 2493.14 1774Z" fill="#666AF6" fill-rule="evenodd"/><path d="M2185.78 1948.97C2191.66 1948.96 2196.63 1944.61 2197.42 1938.79L2246.57 1571.54 2452.23 1571.54 2500.61 1938.79C2501.45 1945.21 2507.33 1949.74 2513.74 1948.9 2513.76 1948.9 2513.78 1948.9 2513.8 1948.89 2520.22 1948.06 2524.74 1942.17 2523.9 1935.75 2523.9 1935.73 2523.9 1935.72 2523.89 1935.7L2474.17 1558.23C2473.4 1552.38 2468.43 1548.01 2462.53 1548L2236.27 1548C2230.39 1547.99 2225.41 1552.35 2224.64 1558.19L2174.1 1935.66C2173.25 1942.1 2177.76 1948.02 2184.2 1948.89 2184.73 1948.97 2185.26 1948.97 2185.78 1948.97Z" fill="#666AF6" fill-rule="evenodd"/><path d="M2302 1560 2449.07 1560C2495.68 1560 2545.57 1534.53 2552.71 1488.49 2561.73 1430.36 2564.83 1371.46 2561.97 1312.7 2558.96 1250.85 2529.41 1193.33 2480.74 1155 2480.74 1155 2451.35 1282.93 2488.29 1459.53 2474.25 1526.66 2302 1560 2302 1560Z" fill="#666AF6" fill-rule="evenodd"/><path d="M1961.52 1792 2027.18 1792C2027.18 1792 2042.41 1719.03 2047.48 1678.08 2052.59 1637.16 2055.23 1540.14 2055.23 1540.14 2055.23 1540.14 2107.58 1557.16 2217.16 1550.74 2459.92 1536.57 2367.88 1358 2367.88 1358 2359.68 1369.33 2309.44 1361.49 2275.11 1366.9 2169.71 1377.01 2078.28 1418.46 2023.45 1442.14 2010.22 1447.83 1998.49 1453.88 1988.23 1460.22 1975 1468.39 1966.72 1493.13 1961.73 1525.72 1946.71 1623.59 1961.52 1792 1961.52 1792Z" fill="#3B5281" fill-rule="evenodd"/><path d="M1963 1876 2009.23 1876 2018.14 1821.7 2023 1792 1965.55 1792 1964.66 1821.7 1963 1876Z" fill="#F8AE9D" fill-rule="evenodd"/><path d="M1963 1876 2009.95 1876 2016.7 1835.78 2019 1822 1964.69 1822 1964.23 1836.31 1963 1876Z" fill="url(#fill1)" fill-rule="evenodd"/><path d="M1848.73 1949 2024.52 1949C2025.82 1946.65 2026.55 1943.29 2026.84 1939.27 2027.94 1924.44 2023.22 1900.81 2020.86 1885.89 2020.57 1884.15 2020.33 1882.53 2020.13 1881.07 2019.8 1878.56 2019.59 1876.49 2019.59 1874.99 2019.59 1862.83 2008.77 1864.9 2008.77 1864.9 1991 1882.28 1970.86 1856.22 1959.1 1864.78 1959.1 1864.78 1958.61 1865.14 1957.56 1865.95 1956.58 1866.72 1955.07 1867.94 1953 1869.68 1949.99 1872.19 1945.8 1875.8 1940.1 1880.91 1926.15 1893.43 1902.43 1901.66 1882.21 1910.09 1879.65 1911.14 1877.25 1912.24 1875.01 1913.29 1873.35 1914.1 1871.76 1914.91 1870.25 1915.72 1853.73 1924.6 1848.49 1933.11 1847.31 1939.27 1846.13 1945.23 1848.73 1949 1848.73 1949Z" fill="#3B5281" fill-rule="evenodd"/><path d="M1848.73 1949 2024.68 1949C2025.98 1946.58 2026.72 1943.13 2027 1939L1847.31 1939C1846.13 1945.13 1848.73 1949 1848.73 1949Z" fill="#31446C" fill-rule="evenodd"/><path d="M2403.62 1063.43 2345.34 1278.55 2366.12 1254.39C2358.43 1258.53 2349.51 1261.68 2339.66 1263.94 2329.8 1266.17 2319.03 1267.48 2307.83 1268.04 2296.59 1268.64 2284.87 1268.52 2272.89 1268.04 2260.9 1267.53 2248.67 1266.65 2236.25 1265.58L2236.17 1265.58C2217.83 1263.98 2201.7 1277.71 2200.12 1296.22 2198.62 1313.85 2211.04 1329.49 2228.08 1332.28 2240.9 1334.35 2253.95 1336.3 2267.32 1337.85 2280.7 1339.41 2294.42 1340.6 2308.62 1340.92 2322.82 1341.24 2337.52 1340.68 2352.71 1338.45 2367.89 1336.22 2383.63 1332.24 2399.01 1325.56 2408.87 1321.26 2415.85 1313.1 2419.05 1303.62L2419.79 1301.39 2489.68 1089.78C2497.53 1065.97 2484.83 1040.3 2461.24 1032.34 2437.7 1024.42 2412.22 1037.24 2404.34 1061.04 2404.1 1061.79 2403.82 1062.71 2403.62 1063.43Z" fill="#F8AE9D" fill-rule="evenodd"/><path d="M2075.54 1792 2141.2 1792C2141.2 1792 2156.42 1719.03 2161.49 1678.07 2166.61 1637.16 2169.25 1540.14 2169.25 1540.14 2169.25 1540.14 2221.59 1557.16 2331.16 1550.74 2573.92 1536.56 2481.88 1358 2481.88 1358 2473.69 1369.33 2412.17 1384.98 2377.83 1390.38 2272.44 1400.5 2192.3 1418.42 2137.47 1442.14 2124.24 1447.83 2112.51 1453.88 2102.24 1460.22 2089.02 1468.39 2080.74 1493.13 2075.74 1525.72 2060.69 1623.59 2075.54 1792 2075.54 1792Z" fill="#3B5281" fill-rule="evenodd"/><path d="M2078 1876 2124.24 1876 2133.15 1821.73 2138 1792 2080.59 1792 2079.66 1821.73 2078 1876Z" fill="#F8AE9D" fill-rule="evenodd"/><path d="M2078 1876 2124.12 1876 2130.7 1835.78 2133 1822 2079.65 1822 2079.21 1836.31 2078 1876Z" fill="url(#fill2)" fill-rule="evenodd"/><path d="M1963.71 1949 2138.53 1949C2139.83 1946.65 2140.55 1943.28 2140.84 1939.27 2141.93 1924.44 2137.24 1900.81 2134.89 1885.89 2134.61 1884.15 2134.37 1882.53 2134.16 1881.07 2133.84 1878.56 2133.64 1876.49 2133.64 1874.99 2133.64 1862.83 2122.87 1864.9 2122.87 1864.9 2105.19 1882.29 2085.17 1856.22 2073.47 1864.78 2073.47 1864.78 2072.99 1865.14 2071.94 1865.95 2070.96 1866.72 2069.47 1867.94 2067.4 1869.68 2064.41 1872.19 2060.24 1875.8 2054.58 1880.91 2040.7 1893.43 2017.11 1901.66 1997.01 1910.09 1994.46 1911.14 1992.07 1912.24 1989.84 1913.29 1988.19 1914.1 1986.61 1914.92 1985.11 1915.73 1968.68 1924.6 1963.46 1933.11 1962.29 1939.27 1961.16 1945.19 1963.71 1949 1963.71 1949Z" fill="#3B5281" fill-rule="evenodd"/><path d="M1963.71 1949 2138.69 1949C2139.99 1946.82 2140.72 1943.71 2141 1940L1962.29 1940C1961.16 1945.48 1963.71 1949 1963.71 1949Z" fill="#31446C" fill-rule="evenodd"/><path d="M1717 1355.92 1717 1374.08C1717 1384.55 1723.44 1393 1731.45 1393L2735.55 1393C2743.52 1393 2750 1384.55 2750 1374.08L2750 1355.92C2750 1345.5 2743.56 1337 2735.55 1337L1731.45 1337C1723.48 1337.05 1717 1345.5 1717 1355.92Z" fill="#E1E4E5" fill-rule="evenodd"/><path d="M1768.3 1419.6 2672.19 1419.6C2676.25 1419.6 2679.54 1416.92 2679.54 1413.6L2679.54 1382 1761 1382 1761 1413.6C1761 1416.92 1764.29 1419.6 1768.3 1419.6ZM2721.05 1954 2592.99 1423.34 2637.99 1423.34 2766 1954 2721.05 1954ZM1843.89 1954 1971.95 1423.34 1926.99 1423.34 1798.94 1954 1843.89 1954Z" fill="#E1E4E5" fill-rule="evenodd"/><path d="M1838.35 1058.86 1885.5 1258.41 1886.76 1263.65 1889.93 1277.08C1891.3 1282.89 1896.48 1287 1902.45 1287L2220.09 1287C2228.38 1287 2234.56 1279.23 2232.65 1271.14L2181.07 1052.92C2179.7 1047.11 2174.52 1043 2168.55 1043L1850.91 1043C1842.58 1043.04 1836.44 1050.81 1838.35 1058.86Z" fill="#666AF6" fill-rule="evenodd"/><path d="M1992.15 1173.5C1993.66 1187.05 2006.01 1198 2019.74 1198 2033.48 1198 2043.35 1187.01 2041.85 1173.5 2040.34 1159.95 2027.99 1149 2014.26 1149 2000.52 1149 1990.65 1159.95 1992.15 1173.5Z" fill="#FFFFFF" fill-rule="evenodd"/><path d="M2155.8 1043 2210.82 1286.33 2220.11 1286.33C2228.41 1286.33 2234.56 1278.58 2232.65 1270.51L2180.97 1052.9C2179.6 1047.1 2174.41 1043 2168.42 1043L2155.8 1043ZM2063.84 1284.36 2072.57 1333 2043.73 1333 2035 1284.36 2063.84 1284.36Z" fill="#3B5281" fill-rule="evenodd"/><path d="M2112.91 1328.93 2106.41 1320.05C2104.07 1316.88 2100.3 1315 2096.29 1315L2009.05 1315C2004.43 1314.99 2000.19 1317.49 1998.08 1321.47L1993.68 1329.64C1991.61 1333.46 1994.5 1338 1998.93 1338L2108.07 1338C2112.87 1338 2115.67 1332.71 2112.91 1328.93Z" fill="#3B5281" fill-rule="evenodd"/><path d="M2291.08 1008.99C2291.08 1008.99 2378.86 1000.42 2372.69 945.702 2366.52 890.981 2373.69 853.02 2317.39 856.184 2261.09 859.345 2252.55 881.453 2250.19 900.216 2247.82 918.984 2268.09 1009.81 2291.08 1008.99Z" fill="#F8AE9D" fill-rule="evenodd"/><path d="M2217 852C2217 852 2226.18 903.025 2243.68 904.886 2261.18 906.744 2254.91 885.29 2254.91 885.29L2250.19 861.089 2217 852Z" fill="#002C54" fill-rule="evenodd"/><path d="M2366.84 836.299C2364.53 817.144 2344.36 811.761 2344.36 811.761 2324.12 804.553 2284.19 812.279 2243.48 825.425 2233.9 828.508 2221.13 823.718 2214.78 829.07 2207.11 835.541 2217.74 860.795 2217.74 860.795 2238.36 907.751 2295.87 886.43 2313.07 878.766 2318.48 890.84 2319.58 908.224 2330.91 916.224 2337.4 920.764 2347.79 919.934 2358.25 917.164 2359.76 919.499 2364.89 921.244 2366.2 924.539 2370.62 935.567 2371.8 953.339 2372.99 967L2377.78 964.072C2378.07 960.279 2418.26 833.089 2366.84 836.299Z" fill="#002C54" fill-rule="evenodd"/><path d="M1567.3 846C1605.24 846 1636 846 1636 846L1636 1030C1636 1030 1605.24 1030 1567.3 1030L1460.7 1030C1422.76 1030 1392 1030 1392 1030L1392 846C1392 846 1422.76 846 1460.7 846Z" fill="#6E98F6" fill-rule="evenodd"/><text fill="#FFFFFF" font-family="Calibri,Calibri_MSFontService,sans-serif" font-weight="700" font-size="92" transform="matrix(1 0 0 1 1447.64 964)">&lt;/&gt;</text><path d="M2395.16 1059.03C2403.06 1030.11 2432.91 1013.06 2461.84 1020.97L2461.84 1020.97C2490.77 1028.87 2507.81 1058.72 2499.91 1087.65L2465.62 1213.15C2457.72 1242.07 2427.87 1259.12 2398.94 1251.21L2398.94 1251.21C2370.01 1243.31 2352.97 1213.45 2360.87 1184.53Z" fill="#6E98F6" fill-rule="evenodd"/></g></svg>