<svg width="429.640625px" height="336.5px" xmlns="http://www.w3.org/2000/svg" viewBox="35.1796875 -93.25 429.640625 336.5" style="background: none;" preserveAspectRatio="xMidYMid"><defs><filter id="editing-extrusion" x="-100%" y="-100%" width="300%" height="300%"><feFlood result="color1" flood-color="#84b6ea"></feFlood><feConvolveMatrix order="9,9" divisor="1" kernelMatrix="1 0 0 0 0 0 0 0 0 0 1 0 0 0 0 0 0 0 0 0 1 0 0 0 0 0 0 0 0 0 1 0 0 0 0 0 0 0 0 0 1 0 0 0 0 0 0 0 0 0 1 0 0 0 0 0 0 0 0 0 1 0 0 0 0 0 0 0 0 0 1 0 0 0 0 0 0 0 0 0 1" in="SourceAlpha" result="extrude"></feConvolveMatrix><feComposite in="color1" in2="extrude" result="comp-extrude" operator="in"></feComposite><feOffset dx="4.5" dy="4.5" in="comp-extrude" result="offset-extrude"></feOffset><feMerge><feMergeNode in="offset-extrude"></feMergeNode><feMergeNode in="SourceGraphic"></feMergeNode></feMerge></filter></defs><g filter="url(#editing-extrusion)"><g transform="translate(106.19998013973236, 143.79999923706055)"><path d="M44.40 0L1.60 0L26-131.40L26-131.40Q45.80-133.60 74.70-133.60L74.70-133.60L74.70-133.60Q103.60-133.60 117-125.20L117-125.20L117-125.20Q130.40-116.80 130.40-99.90L130.40-99.90L130.40-99.90Q130.40-83 121.70-72.40L121.70-72.40L121.70-72.40Q113-61.80 98-58.40L98-58.40L98-58.40Q101.40-41.80 109.20-28.40L109.20-28.40L109.20-28.40Q116.40-15.80 124.80-11.80L124.80-11.80L124.80-11.80Q121.80-3.40 115.70 0.30L115.70 0.30L115.70 0.30Q109.60 4 100.90 4L100.90 4L100.90 4Q92.20 4 85.40-1.10L85.40-1.10L85.40-1.10Q78.60-6.20 73.20-15.60L73.20-15.60L73.20-15.60Q61.80-36 60.60-68.20L60.60-68.20L62-68.20L62-68.20Q76.80-68.60 84.20-76.30L84.20-76.30L84.20-76.30Q91.60-84 91.60-100.20L91.60-100.20L91.60-100.20Q91.60-120.40 74.60-121.20L74.60-121.20L70.20-121.20L70.20-121.20Q68.40-121.20 67.40-121L67.40-121L44.40 0ZM217.80-133.40L217.80-133.40L217.80-133.40Q266.80-133.40 266.80-98.80L266.80-98.80L266.80-98.80Q266.80-79.80 254.60-68.40L254.60-68.40L254.60-68.40Q242.60-57 221.60-57L221.60-57L221.60-57Q211.80-57 204.20-62.60L204.20-62.60L204.20-62.60Q200.60-65 198.20-68.20L198.20-68.20L198.20-68.20Q212.80-68.20 220.50-77.10L220.50-77.10L220.50-77.10Q228.20-86 228.20-103.40L228.20-103.40L228.20-103.40Q228.20-120.80 211-120.80L211-120.80L206.20-120.80L206.20-120.80Q205-120.80 204-120.60L204-120.60L181.00 0L137.60 0L162.20-131L162.20-131Q183.60-133 196.00-133.20L196.00-133.20L196.00-133.20Q208.40-133.40 217.80-133.40ZM247.20-11.80L247.20-11.80L247.20-11.80Q247.20-19.40 253.10-23.60L253.10-23.60L253.10-23.60Q259.00-27.80 267.40-27.80L267.40-27.80L267.40-27.80Q275.80-27.80 280.90-23.60L280.90-23.60L280.90-23.60Q286.00-19.40 286.00-11.80L286.00-11.80L286.00-11.80Q286.00-4.20 280.30-0.10L280.30-0.10L280.30-0.10Q274.60 4 266.20 4L266.20 4L266.20 4Q257.80 4 252.50-0.10L252.50-0.10L252.50-0.10Q247.20-4.20 247.20-11.80Z" fill="#003a68"></path></g></g><style>text {
  font-size: 64px;
  font-family: Arial Black;
  dominant-baseline: central;
  text-anchor: middle;
}</style></svg>